<?xml version="1.0" encoding="UTF-8" standalone="no"?>
<svg
   xmlns:dc="http://purl.org/dc/elements/1.1/"
   xmlns:cc="http://creativecommons.org/ns#"
   xmlns:rdf="http://www.w3.org/1999/02/22-rdf-syntax-ns#"
   xmlns:svg="http://www.w3.org/2000/svg"
   xmlns="http://www.w3.org/2000/svg"
   xmlns:sodipodi="http://sodipodi.sourceforge.net/DTD/sodipodi-0.dtd"
   xmlns:inkscape="http://www.inkscape.org/namespaces/inkscape"
   version="1.0"
   width="1200.000000pt"
   height="1200.000000pt"
   viewBox="0 0 1200.000000 1200.000000"
   preserveAspectRatio="xMidYMid meet"
   id="svg78"
   sodipodi:docname="SIVABW.svg"
   inkscape:version="0.92.2 5c3e80d, 2017-08-06">
  <defs
     id="defs82" />
  <sodipodi:namedview
     pagecolor="#ffffff"
     bordercolor="#666666"
     borderopacity="1"
     objecttolerance="10"
     gridtolerance="10"
     guidetolerance="10"
     inkscape:pageopacity="0"
     inkscape:pageshadow="2"
     inkscape:window-width="1920"
     inkscape:window-height="1035"
     id="namedview80"
     showgrid="false"
     inkscape:zoom="0.53625"
     inkscape:cx="800"
     inkscape:cy="800"
     inkscape:window-x="0"
     inkscape:window-y="1"
     inkscape:window-maximized="1"
     inkscape:current-layer="svg78" />
  <metadata
     id="metadata66">
Created by potrace 1.15, written by Peter Selinger 2001-2017
<rdf:RDF>
  <cc:Work
     rdf:about="">
    <dc:format>image/svg+xml</dc:format>
    <dc:type
       rdf:resource="http://purl.org/dc/dcmitype/StillImage" />
  </cc:Work>
</rdf:RDF>
</metadata>
  <g
     transform="translate(0.000000,1200.000000) scale(0.100000,-0.100000)"
     fill="#000000"
     stroke="none"
     id="g76"
     style="fill:#d40000">
    <path
       d="M4465 8884 c-600 -642 -1123 -1204 -1162 -1248 l-73 -81 113 -6 c61 -4 438 -7 837 -7 l725 -1 564 592 564 592 -6 654 c-4 360 -10 657 -13 660 -3 3 -108 7 -233 9 l-227 3 -1089 -1167z"
       id="path68"
       style="fill:#d40000" />
    <path
       d="M6350 10043 c-131 -2 -186 -7 -192 -16 -4 -6 -8 -305 -8 -663 l0 -652 481 -508 c265 -280 497 -525 516 -545 l34 -35 -515 -550 -515 -549 5 -670 c6 -914 12 -1157 29 -1147 18 9 183 182 1370 1427 1170 1227 1405 1476 1405 1484 0 4 -111 126 -247 271 -391 418 -1931 2060 -1979 2109 l-42 44 -79 2 c-43 1 -161 0 -263 -2z"
       id="path70"
       style="fill:#d40000" />
    <path
       d="M4508 7108 c-207 -216 -581 -609 -831 -873 l-456 -480 0 -790 c1 -434 4 -830 8 -880 l6 -89 381 404 c209 223 584 623 832 889 l452 484 0 851 c0 468 -4 857 -9 864 -6 10 -116 -99 -383 -380z"
       id="path72"
       style="fill:#d40000" />
    <path
       d="M8770 7227 c-102 -104 -728 -759 -1392 -1455 l-1208 -1267 3 -872 c1 -479 6 -875 10 -880 10 -9 25 6 792 807 319 333 898 937 1287 1342 l708 737 -1 458 c-1 252 -5 652 -8 888 l-6 430 -185 -188z"
       id="path74"
       style="fill:#d40000" />
  </g>
</svg>
