<?xml version="1.0" encoding="UTF-8" standalone="no"?>
<svg version="1.1" xmlns="http://www.w3.org/2000/svg" xmlns:xlink="http://www.w3.org/1999/xlink" xmlns:i="http://ns.adobe.com/AdobeIllustrator/10.0/" width="490.88" height="489.92">
	<g id="dp_dp001" transform="matrix(1,0,0,1,-168.703,-283.099)">
		<path id="dp_path002" fill="black" fill-rule="evenodd" d="M 504.195,559.279 L 590.345,474.179 C 532.992,417.703 475.637,361.225 418.283,304.749 C 418.204,338.317 418.125,371.887 418.045,405.456 C 441.227,428.377 464.407,451.299 487.588,474.22 C 464.401,497.089 441.215,519.959 418.028,542.829 L 418.035,593.604 L 418.043,644.377 Z "/>
		<path id="dp_path003" fill="black" fill-rule="evenodd" d="M 590.528,536.789 C 590.515,488.749 590.515,488.749 590.024,488.749 L 589.533,488.749 L 504.136,573.148 C 457.168,619.568 418.524,658.348 418.261,659.325 C 417.783,661.103 417.783,661.103 417.92,708.076 L 418.057,755.049 C 475.552,698.309 533.047,641.569 590.541,584.829 Z "/>
		<path id="dp_path004" fill="black" fill-rule="evenodd" d="M 412.529,355.1 C 412.52,304.749 412.52,304.749 412.027,304.749 L 411.533,304.749 L 327.008,388.377 L 242.484,472.005 C 276.759,471.999 311.033,471.992 345.308,471.984 L 378.924,438.717 L 412.539,405.451 Z "/>
		<path id="dp_path005" fill="black" fill-rule="evenodd" d="M 344.78,527.273 C 344.773,477.499 344.773,477.499 344.277,477.499 L 343.783,477.499 L 293.401,528.044 L 243.02,578.589 C 243.029,611.977 243.037,645.364 243.047,678.751 C 276.96,644.851 310.873,610.949 344.788,577.049 Z "/>
		<path id="dp_path006" fill="#d80000" fill-rule="evenodd" d="M 431.585,284.217 C 412.928,282.999 412.928,282.999 406.605,282.999 C 400.283,282.999 400.283,282.999 399.48,283.499 C 398.679,283.999 398.679,283.999 391.428,284.249 C 379.109,284.673 366.884,287.527 354.928,290.301 C 333.728,295.22 313.572,304.156 294.179,313.853 C 289.179,316.353 289.179,316.353 283.157,321.124 C 277.137,325.895 277.137,325.895 275.012,326.895 C 271.044,328.761 267.528,331.891 263.928,334.353 C 261.316,336.141 253.328,343.621 246.179,350.979 C 230.809,366.791 216.527,383.9 204.231,402.228 C 197.544,412.195 193.723,423.707 189.179,434.728 C 184.179,446.853 184.179,446.853 179.231,462.103 C 176.509,470.491 173.713,481.144 173.016,485.776 C 171.749,494.199 171.749,494.199 170.516,513.796 C 169.283,533.395 169.283,533.395 168.783,536.624 C 168.508,538.4 168.525,542.885 168.823,546.591 C 169.119,550.297 170.436,559.409 171.749,566.841 C 174.639,583.189 179.067,599.736 185.013,615.253 C 186.476,619.073 190.844,628.739 194.887,637.103 C 198.875,645.353 204.565,655.488 207.533,659.624 C 210.985,664.437 213.333,667.909 214.053,669.269 C 217.621,676.009 223.212,682.16 228.283,687.749 C 248.941,710.517 274.115,728.617 300.144,744.74 C 304.401,747.376 304.401,747.376 320.393,754.188 C 329.191,757.933 339.763,761.697 343.887,762.551 C 351.387,764.103 351.387,764.103 362.012,767.051 C 377.004,771.211 392.299,772.021 407.76,772.568 C 423.843,773.139 423.843,773.139 426.74,772.693 C 429.637,772.249 429.637,772.249 442.137,771.196 C 458.152,769.848 473.933,766.133 489.512,762.321 C 506.676,758.121 522.171,748.696 537.512,740.269 C 556.133,730.04 572.228,716.132 587.763,701.769 C 597.3,692.951 605.096,682.385 613.335,672.395 C 620.125,664.16 624.931,654.516 630.369,645.391 C 633.351,640.387 633.351,640.387 641.492,620.796 C 648.624,603.635 654.617,586.5 656.815,567.977 C 658.707,552.031 659.401,535.736 659.424,519.68 C 659.428,516.644 659.428,516.644 657.98,506.144 C 656.533,495.644 656.533,495.644 654.351,480.251 C 652.469,466.981 649.668,453.868 644.679,441.395 C 643.293,437.932 638.276,427.308 633.428,417.572 C 628.616,407.907 622.991,397.837 620.928,395.196 C 616.624,389.685 612.784,383.852 608.783,378.124 C 600.128,365.731 587.704,355.113 576.303,345.395 C 562.189,333.363 547.584,321.307 530.889,313.069 C 515.123,305.289 499.152,298.144 482.303,292.999 C 473.297,290.249 462.399,287.421 458.085,286.717 C 450.244,285.435 450.244,285.435 431.585,284.217 Z M 504.195,559.279 L 590.345,474.179 C 532.992,417.703 475.637,361.225 418.283,304.749 C 418.204,338.317 418.125,371.887 418.045,405.456 C 441.227,428.377 464.407,451.299 487.588,474.22 C 464.401,497.089 441.215,519.959 418.028,542.829 L 418.035,593.604 L 418.043,644.377 Z M 590.528,536.789 C 590.515,488.749 590.515,488.749 590.024,488.749 L 589.533,488.749 L 504.136,573.148 C 457.168,619.568 418.524,658.348 418.261,659.325 C 417.783,661.103 417.783,661.103 417.92,708.076 L 418.057,755.049 C 475.552,698.309 533.047,641.569 590.541,584.829 Z M 412.529,355.1 C 412.52,304.749 412.52,304.749 412.027,304.749 L 411.533,304.749 L 327.008,388.377 L 242.484,472.005 C 276.759,471.999 311.033,471.992 345.308,471.984 L 378.924,438.717 L 412.539,405.451 Z M 344.78,527.273 C 344.773,477.499 344.773,477.499 344.277,477.499 L 343.783,477.499 L 293.401,528.044 L 243.02,578.589 C 243.029,611.977 243.037,645.364 243.047,678.751 C 276.96,644.851 310.873,610.949 344.788,577.049 Z "/>
	</g>
</svg>